<svg width="24" height="24" viewBox="0 0 24 24" fill="none" xmlns="http://www.w3.org/2000/svg">
<g clip-path="url(#clip0)">
<path d="M24 12.0001C24 5.74019 18.6281 0.666748 12 0.666748C5.37188 0.666748 0 5.74019 0 12.0001C0 18.26 5.37188 23.3334 12 23.3334C12.0703 23.3334 12.1406 23.3334 12.2109 23.329V14.5102H9.63281V11.6725H12.2109V9.58289C12.2109 7.16128 13.7766 5.84201 16.0641 5.84201C17.1609 5.84201 18.1031 5.91727 18.375 5.95269V8.48498H16.8C15.5578 8.48498 15.3141 9.04279 15.3141 9.8618V11.668H18.2906L17.9016 14.5058H15.3141V22.8951C20.3297 21.536 24 17.1753 24 12.0001Z" fill="#272343"/>
</g>
<defs>
<clipPath id="clip0">
<rect width="24" height="22.6667" fill="white" transform="translate(0 0.666748)"/>
</clipPath>
</defs>
</svg>
