<?xml version="1.0" standalone="no"?>
<!DOCTYPE svg PUBLIC "-//W3C//DTD SVG 20010904//EN"
 "http://www.w3.org/TR/2001/REC-SVG-20010904/DTD/svg10.dtd">
<svg version="1.0" xmlns="http://www.w3.org/2000/svg"
 width="1436.000000pt" height="870.000000pt" viewBox="0 0 1436.000000 870.000000"
 preserveAspectRatio="xMidYMid meet">

<g transform="translate(0.000000,870.000000) scale(0.100000,-0.100000)"
fill="#000000" stroke="none">
<path d="M6925 8680 c-666 -47 -1288 -290 -1815 -708 -122 -98 -404 -380 -502
-502 -385 -485 -613 -1032 -689 -1655 -9 -66 -14 -210 -14 -360 0 -285 7 -322
78 -460 30 -58 63 -102 122 -160 134 -134 281 -195 470 -195 121 0 192 17 301
70 169 82 299 243 350 430 13 50 18 113 20 277 4 305 41 505 139 748 67 165
113 242 240 402 117 148 196 232 295 315 351 294 765 448 1205 448 152 0 383
-24 485 -50 607 -155 1109 -623 1315 -1226 19 -55 35 -108 35 -117 0 -12 -488
-178 -2089 -712 -1991 -664 -2092 -698 -2164 -746 -283 -185 -382 -548 -232
-854 87 -180 424 -546 693 -755 561 -434 1237 -670 1937 -674 143 0 193 3 245
17 240 65 413 234 487 473 13 44 18 91 17 184 0 108 -4 136 -27 205 -68 204
-232 364 -442 431 -67 21 -110 26 -275 34 -195 9 -264 17 -388 46 -107 25
-255 75 -246 83 5 5 794 270 1754 591 961 321 1769 596 1797 612 166 93 287
257 329 447 35 154 -1 580 -75 891 -184 781 -666 1475 -1336 1926 -386 259
-811 429 -1265 503 -232 38 -549 55 -755 41z"/>
<path d="M545 1421 c-203 -25 -373 -145 -460 -326 -62 -128 -79 -218 -78 -395
1 -229 51 -374 170 -500 122 -129 255 -182 463 -183 88 -1 144 4 190 16 187
50 319 167 385 342 14 36 25 67 25 69 0 4 -230 29 -233 25 -1 -2 -15 -30 -30
-62 -61 -128 -161 -197 -299 -205 -104 -6 -173 10 -246 57 -103 67 -170 185
-190 339 l-9 62 510 0 510 0 -6 113 c-13 214 -65 353 -178 472 -132 139 -317
201 -524 176z m213 -197 c133 -43 223 -162 247 -328 l7 -46 -381 0 -381 0 0
23 c1 110 81 248 181 312 85 55 225 72 327 39z"/>
<path d="M2852 1419 c-249 -38 -417 -195 -482 -450 -28 -109 -37 -281 -20
-401 24 -180 80 -298 189 -400 146 -137 372 -189 580 -133 173 46 317 186 371
364 33 107 34 106 -69 119 -132 18 -128 19 -135 -31 -16 -105 -94 -215 -185
-259 -56 -28 -189 -37 -257 -18 -168 47 -260 202 -271 460 -10 226 33 375 133
470 72 68 129 92 230 98 102 5 165 -14 228 -69 44 -39 106 -144 106 -181 0
-10 5 -18 10 -18 19 0 205 31 209 35 8 9 -21 100 -51 158 -58 117 -184 213
-318 245 -69 17 -197 22 -268 11z"/>
<path d="M4172 1420 c-254 -35 -444 -202 -507 -445 -24 -93 -34 -243 -24 -359
30 -345 221 -556 539 -597 243 -31 481 67 605 251 87 128 121 280 112 500 -9
227 -57 352 -187 480 -113 113 -224 161 -395 173 -44 3 -109 1 -143 -3z m250
-212 c107 -50 185 -144 225 -273 14 -47 18 -93 17 -210 0 -225 -34 -327 -146
-430 -82 -76 -145 -98 -268 -93 -79 4 -104 9 -147 31 -141 73 -213 196 -232
395 -16 181 16 351 86 452 43 62 126 124 193 145 72 23 202 15 272 -17z"/>
<path d="M5705 1419 c-93 -13 -192 -67 -264 -144 l-61 -66 0 96 0 95 -100 0
-100 0 0 -680 0 -680 110 0 110 0 0 393 c0 489 11 577 84 677 93 129 330 162
427 60 67 -70 69 -92 69 -643 l0 -487 115 0 115 0 0 438 c0 356 3 449 16 502
36 155 155 250 312 250 74 0 125 -17 171 -56 77 -66 76 -56 79 -626 l3 -508
110 0 110 0 -3 542 c-3 600 -2 587 -70 688 -78 116 -234 174 -407 150 -115
-15 -203 -62 -288 -154 l-69 -74 -29 55 c-50 96 -146 156 -277 173 -83 11 -82
11 -163 -1z"/>
<path d="M7900 1419 c-119 -18 -210 -67 -290 -157 l-50 -56 0 97 0 97 -100 0
-100 0 0 -680 0 -680 109 0 109 0 5 432 c6 467 11 516 62 604 56 96 162 154
281 154 112 0 177 -42 216 -139 22 -55 23 -65 26 -553 l3 -498 110 0 109 0 0
418 c0 244 5 444 11 482 20 125 75 207 174 258 66 34 185 42 249 18 64 -24
121 -90 135 -155 7 -34 11 -218 11 -536 l0 -485 115 0 115 0 0 453 c-1 487 -8
613 -40 700 -58 155 -181 231 -375 230 -109 0 -182 -20 -262 -72 -53 -34 -153
-134 -153 -153 0 -20 -17 -4 -28 26 -28 77 -131 160 -227 184 -62 16 -155 21
-215 11z"/>
<path d="M10002 1420 c-280 -38 -473 -239 -522 -544 -16 -97 -8 -330 15 -411
61 -221 210 -372 426 -431 88 -24 290 -24 379 0 164 45 290 150 362 302 21 45
38 88 38 96 0 11 -24 18 -94 26 -138 17 -132 19 -156 -35 -37 -83 -92 -146
-161 -183 -62 -34 -67 -35 -179 -35 -110 0 -118 1 -175 31 -67 36 -142 110
-175 173 -24 49 -60 180 -60 223 l0 28 506 0 507 0 -6 123 c-7 145 -23 213
-78 326 -48 97 -132 189 -219 238 -109 62 -272 91 -408 73z m260 -213 c110
-54 184 -162 206 -302 l9 -55 -384 0 c-261 0 -383 3 -383 11 0 46 37 157 69
206 80 123 182 175 337 170 74 -2 100 -8 146 -30z"/>
<path d="M11442 1419 c-79 -15 -132 -60 -202 -169 l-35 -55 -3 103 -3 102 -99
0 -100 0 0 -680 0 -680 109 0 109 0 4 427 c4 404 6 433 26 508 27 95 58 145
114 182 37 25 50 28 127 28 64 0 96 -5 124 -19 21 -10 39 -17 41 -15 2 3 39
102 73 195 5 15 -100 60 -171 73 -33 6 -62 11 -65 10 -3 -1 -25 -5 -49 -10z"/>
<path d="M12325 1421 c-205 -34 -361 -141 -438 -301 -45 -94 -65 -172 -78
-302 -40 -410 132 -711 451 -789 30 -8 102 -14 160 -14 127 1 217 25 305 83
135 88 212 206 249 378 l7 31 -106 13 c-58 6 -108 10 -111 8 -2 -3 -11 -31
-19 -62 -30 -113 -80 -184 -167 -232 -50 -27 -60 -29 -163 -29 -101 0 -114 2
-163 28 -151 80 -214 219 -215 482 0 263 62 404 215 485 53 28 76 35 143 38
44 2 98 -1 121 -7 89 -24 168 -102 203 -201 10 -27 20 -52 23 -55 5 -5 209 23
215 29 2 2 -4 27 -13 57 -51 172 -180 300 -347 343 -73 19 -207 27 -272 17z"/>
<path d="M13638 1419 c-247 -33 -435 -208 -505 -469 -25 -94 -25 -388 0 -480
63 -226 211 -378 428 -436 89 -24 291 -24 378 0 163 44 283 141 356 289 25 49
45 97 45 106 0 15 -16 20 -94 29 -139 17 -129 20 -165 -52 -39 -79 -99 -143
-166 -176 -44 -22 -63 -25 -165 -25 -110 0 -118 1 -175 31 -74 39 -148 116
-181 188 -24 53 -53 169 -54 214 l0 22 506 0 507 0 -6 123 c-7 145 -23 213
-78 326 -48 97 -132 189 -219 238 -110 63 -271 91 -412 72z m254 -206 c61 -28
144 -106 173 -163 20 -41 37 -100 48 -172 l4 -28 -384 0 -385 0 7 43 c28 167
123 285 270 334 61 20 209 12 267 -14z"/>
<path d="M1450 720 l0 -110 350 0 350 0 0 110 0 110 -350 0 -350 0 0 -110z"/>
</g>
</svg>
